<svg width="24" height="24" viewBox="0 0 24 24" fill="none" xmlns="http://www.w3.org/2000/svg">
<g clip-path="url(#clip0_45_5364)">
<path d="M12 24C18.6274 24 24 18.6274 24 12C24 5.37258 18.6274 0 12 0C5.37258 0 0 5.37258 0 12C0 18.6274 5.37258 24 12 24Z" fill="#5429CC"/>
<path fill-rule="evenodd" clip-rule="evenodd" d="M8.40039 13.959C8.40039 12.4886 11.0356 7.19995 12.0004 7.19995C13.0036 7.19995 15.6004 12.4373 15.6004 13.959C15.6004 15.8925 13.9886 17.4599 12.0004 17.4599C10.0122 17.4599 8.40039 15.8925 8.40039 13.959ZM12.0012 16.1999C12.9953 16.1999 13.8012 15.394 13.8012 14.3999C13.8012 13.4058 12.9953 12.5999 12.0012 12.5999C11.0071 12.5999 10.2012 13.4058 10.2012 14.3999C10.2012 15.394 11.0071 16.1999 12.0012 16.1999Z" fill="#FAFBFC"/>
</g>
<defs>
<clipPath id="clip0_45_5364">
<rect width="24" height="24" fill="white"/>
</clipPath>
</defs>
</svg>
