<svg width="24" height="24" viewBox="0 0 24 24" fill="none" xmlns="http://www.w3.org/2000/svg">
<g clip-path="url(#clip0_45_5371)">
<path d="M12 24C18.6274 24 24 18.6274 24 12C24 5.37258 18.6274 0 12 0C5.37258 0 0 5.37258 0 12C0 18.6274 5.37258 24 12 24Z" fill="#2C6BC9"/>
<path fill-rule="evenodd" clip-rule="evenodd" d="M8.40039 13.9529C8.40039 12.4838 11.0356 7.19995 12.0004 7.19995C13.0036 7.19995 15.6004 12.4325 15.6004 13.9529C15.6004 15.8846 13.9886 17.4506 12.0004 17.4506C10.0122 17.4506 8.40039 15.8846 8.40039 13.9529ZM12.0052 8.46564L12.0004 8.45917H12.01L12.0052 8.46564ZM12.0052 8.46564C12.7423 9.45203 13.3516 10.5227 13.8196 11.6537H10.1812C10.6626 10.5271 11.2745 9.45755 12.0052 8.46564ZM14.2325 12.6191C14.3675 12.9298 14.4689 13.2534 14.5349 13.5845H9.45646C9.5235 13.2531 9.62648 12.9295 9.76366 12.6191H14.2325ZM9.44703 14.5544C9.75976 15.6959 10.7874 16.5161 12.0006 16.5924C13.2138 16.5161 14.2415 15.6959 14.5542 14.5544H9.44703Z" fill="white"/>
</g>
<defs>
<clipPath id="clip0_45_5371">
<rect width="24" height="24" fill="white"/>
</clipPath>
</defs>
</svg>
