<svg width="24" height="24" viewBox="0 0 24 24" fill="none" xmlns="http://www.w3.org/2000/svg">
<g clip-path="url(#clip0_45_5350)">
<path d="M12 24C18.6274 24 24 18.6274 24 12C24 5.37258 18.6274 0 12 0C5.37258 0 0 5.37258 0 12C0 18.6274 5.37258 24 12 24Z" fill="#F9DA62"/>
<path fill-rule="evenodd" clip-rule="evenodd" d="M8.40039 13.959C8.40039 12.4886 11.0356 7.19995 12.0004 7.19995C13.0036 7.19995 15.6004 12.4373 15.6004 13.959C15.6004 15.8925 13.9886 17.4599 12.0004 17.4599C10.0122 17.4599 8.40039 15.8925 8.40039 13.959ZM12.0053 8.36903C12.0037 8.3667 12.0021 8.36436 12.0005 8.36202H12.0101C12.0085 8.36436 12.0069 8.3667 12.0053 8.36903ZM12.0053 8.36903C11.1152 9.67717 10.3641 11.0699 9.76367 12.5257H14.2325C13.6477 11.0655 12.9009 9.67174 12.0053 8.36903Z" fill="white"/>
</g>
<defs>
<clipPath id="clip0_45_5350">
<rect width="24" height="24" fill="white"/>
</clipPath>
</defs>
</svg>
